<svg width="213" height="213" viewBox="0 0 213 213" fill="none" xmlns="http://www.w3.org/2000/svg">
<path fill-rule="evenodd" clip-rule="evenodd" d="M212.595 40.4386V167.684V171.23C212.595 173.923 210.4 176.106 207.693 176.106H4.23408C1.89566 176.106 0 174.22 0 171.895C0 169.569 1.89566 167.684 4.23408 167.684H28.0786V146.52C23.7898 151.341 17.4927 154.386 10.4738 154.386C9.32924 154.386 8.2039 154.305 7.10332 154.148C4.96931 153.845 3.56554 151.877 3.56554 149.733C3.56554 146.935 6.44365 144.943 9.2546 145.061C9.51108 145.071 9.76893 145.077 10.0281 145.077C19.9971 145.077 28.0786 136.596 28.0786 126.681V119.48C23.7898 124.302 17.4927 127.346 10.4738 127.346C9.32924 127.346 8.2039 127.265 7.10332 127.109C4.96931 126.805 3.56554 124.837 3.56554 122.693C3.56554 119.895 6.44365 117.903 9.2546 118.021C9.51108 118.032 9.76893 118.037 10.0281 118.037C19.9971 118.037 28.0786 109.556 28.0786 99.6416V91.5541C23.7898 96.3756 17.4927 99.42 10.4738 99.42C9.32924 99.42 8.2039 99.339 7.10332 99.1826C4.96931 98.8793 3.56554 96.9111 3.56554 94.7671C3.56554 91.9689 6.44365 89.9772 9.2546 90.0951C9.51108 90.1058 9.76893 90.1113 10.0281 90.1113C19.9971 90.1113 28.0786 81.6304 28.0786 71.7155V70.3857C28.0786 67.8152 30.1738 65.7313 32.7584 65.7313C35.343 65.7313 37.4382 67.8152 37.4382 70.3857V71.7155C37.4382 81.6304 45.5197 90.1113 55.4887 90.1113C55.7479 90.1113 56.0057 90.1058 56.2622 90.0951C56.7719 90.0737 57.2837 90.1217 57.7802 90.2312C57.8049 90.2176 57.8297 90.2042 57.8547 90.191L103.328 66.1645C104.629 65.4774 106.186 65.4735 107.49 66.154L127.873 76.7917L206.089 36.5025C209.055 34.9744 212.595 37.1158 212.595 40.4386ZM55.4887 99.4159V118.037C45.5197 118.037 37.4382 109.556 37.4382 99.6416V91.5541C41.727 96.3756 48.0241 99.42 55.043 99.42C55.1919 99.42 55.3405 99.4186 55.4887 99.4159ZM55.4887 127.342C55.3405 127.345 55.1919 127.346 55.043 127.346C48.0241 127.346 41.727 124.302 37.4382 119.48V126.681C37.4382 136.596 45.5197 145.077 55.4887 145.077V127.342ZM55.4887 154.381C55.3405 154.384 55.1919 154.386 55.043 154.386C48.0241 154.386 41.727 151.341 37.4382 146.52V167.684H55.4887V154.381ZM137.472 81.8015L203.459 48.0005V167.684H172.929V102.986C172.929 101.339 172.01 99.8269 170.543 99.0613L137.472 81.8015ZM127.767 86.7727L163.792 104.961V167.684H148.861V120.697C148.861 118.249 146.866 116.264 144.404 116.264H102.509C100.048 116.264 98.0524 118.249 98.0524 120.697V167.684H84.9044V108.729L127.767 86.7727ZM139.725 125.351V167.684H106.966V125.351H139.725ZM78.175 102.391C76.6962 103.153 75.7677 104.671 75.7677 106.327V167.684H64.1797V96.7603L105.406 75.4833L118.035 81.8592L78.175 102.391Z" fill="#EDD600"/>
</svg>
