<svg width="650" height="141" viewBox="0 0 650 141" fill="none" xmlns="http://www.w3.org/2000/svg">
<path fill-rule="evenodd" clip-rule="evenodd" d="M212.595 4.43865V131.684V135.23C212.595 137.923 210.4 140.106 207.693 140.106H4.23408C1.89566 140.106 0 138.22 0 135.895C0 133.569 1.89566 131.684 4.23408 131.684H28.0786V110.52C23.7898 115.341 17.4927 118.386 10.4738 118.386C9.32924 118.386 8.2039 118.305 7.10332 118.148C4.96931 117.845 3.56554 115.877 3.56554 113.733C3.56554 110.935 6.44365 108.943 9.2546 109.061C9.51108 109.071 9.76894 109.077 10.0281 109.077C19.9971 109.077 28.0786 100.596 28.0786 90.6811V83.4802C23.7898 88.3016 17.4927 91.346 10.4738 91.346C9.32924 91.346 8.2039 91.2651 7.10332 91.1087C4.96931 90.8054 3.56554 88.8372 3.56554 86.6932C3.56554 83.895 6.44365 81.9033 9.2546 82.0212C9.51108 82.0319 9.76894 82.0373 10.0281 82.0373C19.9971 82.0373 28.0786 73.5565 28.0786 63.6416V55.5541C23.7898 60.3756 17.4927 63.42 10.4738 63.42C9.32924 63.42 8.2039 63.339 7.10332 63.1826C4.96931 62.8793 3.56554 60.9111 3.56554 58.7671C3.56554 55.9689 6.44365 53.9772 9.2546 54.0951C9.51108 54.1058 9.76894 54.1113 10.0281 54.1113C19.9971 54.1113 28.0786 45.6304 28.0786 35.7155V34.3857C28.0786 31.8152 30.1738 29.7313 32.7584 29.7313C35.343 29.7313 37.4382 31.8152 37.4382 34.3857V35.7155C37.4382 45.6304 45.5197 54.1113 55.4887 54.1113C55.7479 54.1113 56.0057 54.1058 56.2622 54.0951C56.7719 54.0737 57.2837 54.1217 57.7802 54.2312C57.8049 54.2176 57.8297 54.2042 57.8547 54.191L103.328 30.1645C104.629 29.4774 106.186 29.4735 107.49 30.154L127.873 40.7917L206.089 0.50252C209.055 -1.02562 212.595 1.11583 212.595 4.43865ZM55.4887 63.4159V82.0373C45.5197 82.0373 37.4382 73.5565 37.4382 63.6416V55.5541C41.727 60.3756 48.0241 63.42 55.043 63.42C55.1919 63.42 55.3405 63.4186 55.4887 63.4159ZM55.4887 91.3419C55.3405 91.3447 55.1919 91.346 55.043 91.346C48.0241 91.346 41.727 88.3016 37.4382 83.4802V90.6811C37.4382 100.596 45.5197 109.077 55.4887 109.077V91.3419ZM55.4887 118.381C55.3405 118.384 55.1919 118.386 55.043 118.386C48.0241 118.386 41.727 115.341 37.4382 110.52V131.684H55.4887V118.381ZM137.472 45.8015L203.459 12.0005V131.684H172.929V66.9864C172.929 65.3386 172.01 63.8269 170.543 63.0613L137.472 45.8015ZM127.767 50.7727L163.792 68.9608V131.684H148.861V84.697C148.861 82.2488 146.866 80.2643 144.404 80.2643H102.509C100.048 80.2643 98.0524 82.2488 98.0524 84.697V131.684H84.9044V72.7286L127.767 50.7727ZM139.725 89.3513V131.684H106.966V89.3513H139.725ZM78.175 66.3911C76.6962 67.1528 75.7677 68.6709 75.7677 70.3272V131.684H64.1797V60.7603L105.406 39.4833L118.035 45.8592L78.175 66.3911Z" fill="#EDD600"/>
<path d="M621.406 75.6755V25.5272H603.18V15.6274H650V25.5272H631.774V75.6755H621.406Z" fill="#101820"/>
<path d="M544.048 75.6755V15.6274H551.257L585.117 38.9163V15.6274H595.323V75.6755H585.117V50.926L554.254 29.7468V75.6755H544.048Z" fill="#101820"/>
<path d="M491.442 75.6755V15.6274H533.078V25.5272H501.649V39.9712H530.891V49.8711H501.649V65.7757H534.213V75.6755H491.442Z" fill="#101820"/>
<path d="M429.74 75.6755V15.6274H451.287C470.323 15.6274 481.907 27.8804 481.907 45.6515C481.907 63.4225 470.323 75.6755 451.287 75.6755H429.74ZM439.946 65.938H451.287C464.086 65.938 471.214 57.8234 471.214 45.6515C471.214 33.3984 464.086 25.3649 451.287 25.3649H439.946V65.938Z" fill="#101820"/>
<path d="M406.246 75.6755V15.6274H416.452V75.6755H406.246Z" fill="#101820"/>
<path d="M373.471 76.6494C365.776 76.6494 358.08 75.1076 351.033 69.9142L355.812 61.2316C361.159 65.8569 367.72 66.7495 373.471 66.7495C381.572 66.7495 385.784 63.4225 385.784 58.4726C385.784 53.6038 378.574 51.5752 372.499 49.9523C362.455 47.2744 351.681 43.9474 351.681 31.6944C351.681 21.3077 359.701 14.6537 373.471 14.6537C379.384 14.6537 386.837 15.7897 393.56 19.7659L388.943 28.5297C383.84 25.2027 377.845 24.5535 373.471 24.5535C366.424 24.5535 362.131 27.3125 362.131 31.6944C362.131 36.482 368.368 38.5107 374.848 40.1336C385.055 42.7303 396.233 45.8138 396.233 58.4726C396.233 69.3462 388.295 76.6494 373.471 76.6494Z" fill="#101820"/>
<path d="M301.668 75.6755V15.6274H343.304V25.5272H311.875V39.9712H341.117V49.8711H311.875V65.7757H344.438V75.6755H301.668Z" fill="#101820"/>
<path d="M278.201 55.1456L280.469 59.1217C283.142 63.8282 286.22 66.4249 291.648 67.3986V76.2436C282.089 75.8378 277.553 72.9166 272.288 64.4774L268.076 57.6611H253.495V75.6755H243.288V15.6274H269.453C281.36 15.6274 291.243 22.8494 291.243 36.6442C291.243 46.1383 284.843 52.5489 278.201 55.1456ZM269.453 25.3649H253.495V48.2481H269.21C276.176 48.2481 280.55 44.1908 280.55 36.6442C280.55 29.3411 275.528 25.3649 269.453 25.3649Z" fill="#101820"/>
<path d="M549.555 125.039V100.837H567.024V103.693H552.752V111.106H566.118V113.945H552.752V122.183H567.584V125.039H549.555Z" fill="#808080"/>
<path d="M492.137 117.264L495.153 116.999C495.296 118.21 495.626 119.206 496.142 119.988C496.67 120.758 497.483 121.385 498.581 121.87C499.68 122.343 500.916 122.579 502.289 122.579C503.509 122.579 504.586 122.398 505.519 122.035C506.453 121.671 507.146 121.176 507.596 120.549C508.057 119.91 508.288 119.217 508.288 118.469C508.288 117.709 508.068 117.049 507.629 116.488C507.189 115.915 506.464 115.436 505.454 115.051C504.805 114.798 503.372 114.407 501.152 113.879C498.933 113.34 497.378 112.834 496.488 112.36C495.335 111.755 494.472 111.007 493.901 110.115C493.341 109.213 493.06 108.205 493.06 107.094C493.06 105.872 493.406 104.733 494.099 103.676C494.791 102.609 495.802 101.8 497.131 101.25C498.46 100.699 499.938 100.424 501.564 100.424C503.355 100.424 504.932 100.716 506.294 101.299C507.667 101.871 508.722 102.719 509.458 103.842C510.194 104.964 510.59 106.235 510.645 107.655L507.58 107.886C507.415 106.356 506.854 105.201 505.899 104.419C504.954 103.638 503.553 103.247 501.696 103.247C499.762 103.247 498.351 103.605 497.461 104.32C496.582 105.025 496.142 105.878 496.142 106.879C496.142 107.749 496.455 108.464 497.082 109.025C497.697 109.587 499.301 110.165 501.894 110.759C504.498 111.342 506.283 111.854 507.25 112.294C508.656 112.944 509.694 113.769 510.365 114.771C511.035 115.761 511.37 116.906 511.37 118.205C511.37 119.492 511.002 120.708 510.266 121.853C509.53 122.987 508.469 123.873 507.085 124.511C505.712 125.138 504.163 125.452 502.438 125.452C500.251 125.452 498.416 125.133 496.933 124.495C495.461 123.856 494.302 122.899 493.456 121.622C492.621 120.334 492.181 118.881 492.137 117.264Z" fill="#808080"/>
<path d="M450.937 100.837H454.134V114.82C454.134 117.253 453.859 119.184 453.31 120.615C452.761 122.046 451.766 123.212 450.327 124.115C448.899 125.006 447.02 125.452 444.691 125.452C442.427 125.452 440.576 125.061 439.137 124.28C437.698 123.499 436.67 122.37 436.055 120.896C435.44 119.41 435.132 117.385 435.132 114.82V100.837H438.329V114.804C438.329 116.906 438.522 118.458 438.906 119.459C439.302 120.45 439.972 121.215 440.917 121.754C441.873 122.293 443.037 122.563 444.41 122.563C446.762 122.563 448.437 122.029 449.437 120.962C450.437 119.894 450.937 117.841 450.937 114.804V100.837Z" fill="#808080"/>
<path d="M374.089 113.252C374.089 109.234 375.166 106.092 377.319 103.825C379.473 101.547 382.252 100.408 385.658 100.408C387.889 100.408 389.899 100.941 391.69 102.009C393.481 103.077 394.843 104.568 395.777 106.483C396.722 108.387 397.194 110.55 397.194 112.971C397.194 115.425 396.7 117.621 395.711 119.558C394.722 121.495 393.322 122.965 391.509 123.966C389.696 124.957 387.74 125.452 385.642 125.452C383.367 125.452 381.335 124.902 379.544 123.801C377.753 122.7 376.396 121.198 375.473 119.294C374.55 117.39 374.089 115.376 374.089 113.252ZM377.385 113.301C377.385 116.218 378.165 118.518 379.725 120.202C381.296 121.875 383.263 122.712 385.625 122.712C388.031 122.712 390.009 121.864 391.558 120.169C393.118 118.474 393.898 116.069 393.898 112.955C393.898 110.984 393.563 109.267 392.893 107.804C392.234 106.329 391.262 105.19 389.976 104.386C388.702 103.572 387.268 103.165 385.675 103.165C383.411 103.165 381.461 103.946 379.824 105.509C378.198 107.061 377.385 109.658 377.385 113.301Z" fill="#808080"/>
<path d="M317.018 125.039V100.837H320.215V110.775H332.773V100.837H335.97V125.039H332.773V113.632H320.215V125.039H317.018Z" fill="#808080"/>
</svg>
